<svg width="26" height="25" viewBox="0 0 26 25" fill="none" xmlns="http://www.w3.org/2000/svg">
<path fill-rule="evenodd" clip-rule="evenodd" d="M0.0005 13.9186C0.0005 6.73899 5.82055 0.91861 13.0005 0.91861C20.1798 0.91861 26.0005 6.73933 26.0005 13.9186C26.0005 14.2034 25.9913 14.4866 25.973 14.768C25.9906 14.8425 26 14.9201 26 15C26 15.1427 25.9701 15.2785 25.9162 15.4013C25.5434 18.6633 23.9501 21.6378 21.4633 23.775C21.1965 24.0043 20.829 24.0765 20.4953 23.9653C18.0684 23.1563 15.5532 22.7366 13.0005 22.7366C10.4473 22.7366 7.9331 23.1562 5.50461 23.9653C5.17096 24.0765 4.80343 24.0042 4.53671 23.775C2.05095 21.6387 0.458333 18.6654 0.0850641 15.4042C0.0303761 15.2806 0 15.1439 0 15C0 14.919 0.00963478 14.8402 0.0278211 14.7648C0.00967391 14.4844 0.0005 14.2023 0.0005 13.9186ZM23.9993 14H22L21.8834 14.0067C21.386 14.0645 21 14.4872 21 15C21 15.5523 21.4477 16 22 16H23.8027C23.3758 18.2182 22.2736 20.2408 20.6464 21.8144L20.568 21.887L19.9955 21.7184C17.7193 21.0711 15.3754 20.7366 13.0005 20.7366L12.4074 20.7436C10.0376 20.7991 7.70296 21.1873 5.432 21.888L5.35369 21.8145C3.72679 20.241 2.6249 18.2185 2.19822 16H4L4.11662 15.9933C4.61396 15.9355 5 15.5128 5 15C5 14.4477 4.55228 14 4 14H2.0008L2.0005 13.9186C2.0005 8.18078 6.39356 3.46895 12 2.9635V4.91891L12.0067 5.03553C12.0645 5.53287 12.4872 5.91891 13 5.91891C13.5523 5.91891 14 5.47119 14 4.91891V2.96342C19.6064 3.46848 24.0005 8.18081 24.0005 13.9186L23.9993 14ZM15 16.582C15 17.686 14.104 18.582 13 18.582C11.896 18.582 11 17.686 11 16.582C11 15.833 11.918 12.119 12.51 9.80001C12.64 9.29101 13.36 9.29101 13.49 9.80001C14.082 12.119 15 15.833 15 16.582Z" fill="#08A652"/>
</svg>
