<svg width="27" height="20" viewBox="0 0 27 20" fill="none" xmlns="http://www.w3.org/2000/svg">
<path fill-rule="evenodd" clip-rule="evenodd" d="M15 17.5863C15 19.3673 17.1542 20.2603 18.4141 19.0004L26.7067 10.7168C27.0974 10.3265 27.0978 9.69337 26.7075 9.30263L18.4155 1.00063C17.1552 -0.259671 15 0.632282 15 2.41431V7.99831H17L17.0009 2.41442L24.5858 10.0085L17 17.5863V14.0093C17 13.457 16.5523 13.0093 16 13.0093H5V15.0093H15V17.5863ZM3.41247 5.99975L4.70711 4.70512C5.09763 4.31459 5.09763 3.68143 4.70711 3.29091C4.31658 2.90038 3.68342 2.90038 3.29289 3.29091L0.292893 6.2909C-0.0976311 6.68143 -0.0976311 7.31459 0.292893 7.70512L3.29289 10.7051C3.68342 11.0956 4.31658 11.0956 4.70711 10.7051C5.09763 10.3146 5.09763 9.68143 4.70711 9.2909L3.41596 7.99975L13.0002 7.99801L12.9998 5.99801L3.41247 5.99975Z" fill="#08A652"/>
</svg>
