<svg width="21" height="20" viewBox="0 0 21 20" fill="none" xmlns="http://www.w3.org/2000/svg">
<path fill-rule="evenodd" clip-rule="evenodd" d="M5.33691 0C7.8222 0 9.83691 2.01472 9.83691 4.5C9.83691 6.98528 7.8222 9 5.33691 9C2.85163 9 0.836914 6.98528 0.836914 4.5C0.836914 2.01472 2.85163 0 5.33691 0ZM5.33691 2C3.9562 2 2.83691 3.11928 2.83691 4.5C2.83691 5.88072 3.9562 7 5.33691 7C6.71763 7 7.83691 5.88072 7.83691 4.5C7.83691 3.11928 6.71763 2 5.33691 2ZM16.3369 11C18.8222 11 20.8369 13.0147 20.8369 15.5C20.8369 17.9853 18.8222 20 16.3369 20C13.8516 20 11.8369 17.9853 11.8369 15.5C11.8369 13.0147 13.8516 11 16.3369 11ZM16.3369 13C14.9562 13 13.8369 14.1193 13.8369 15.5C13.8369 16.8807 14.9562 18 16.3369 18C17.7176 18 18.8369 16.8807 18.8369 15.5C18.8369 14.1193 17.7176 13 16.3369 13ZM2.54402 19.7071L20.544 1.70711C20.9345 1.31658 20.9345 0.683418 20.544 0.292893C20.1535 -0.0976311 19.5203 -0.0976311 19.1298 0.292893L1.12981 18.2929C0.739283 18.6834 0.739283 19.3166 1.12981 19.7071C1.52033 20.0976 2.1535 20.0976 2.54402 19.7071Z" fill="#08A652"/>
</svg>
